<svg enable-background="new 0 0 512 512" viewBox="0 0 512 512" xmlns="http://www.w3.org/2000/svg"><path d="m120.92 7.5h328.26v43.23h-328.26z" fill="#76c1b3"/><path d="m326.693 50.73h-69.41l-43.23-43.23h69.42z" fill="#f5c350"/><path d="m404.153 84.5h-238.2l-45.031-33.772h328.262z" fill="#e66480"/><path d="m120.92 296.92h328.26v43.23h-328.26z" fill="#76c1b3"/><path d="m165.953 263.153h238.2l45.031 33.772h-328.262z" fill="#e66480"/><path d="m165.95 84.5h238.2v178.65h-238.2z" fill="#dd5478"/><path d="m135.78 340.15h298.54v164.35h-298.54z" fill="#76c1b3"/><path d="m135.78 475.63h298.54v28.866h-298.54z" fill="#52a397"/><path d="m135.78 340.15h298.54v21.514h-298.54z" fill="#52a397"/><path d="m434.323 479.85v24.65h-88.93l-28.87-28.87-113.95-113.96-21.52-21.52h113.57l135.48 135.48z" fill="#f5c350"/><path d="m434.323 479.85v24.65h-88.93l-28.87-28.87h113.58z" fill="#e5b045"/><path d="m316.143 361.67h-113.57l-21.52-21.52h113.57z" fill="#e5b045"/><path d="m191.16 106.79h187.78v134.07h-187.78z" fill="#f1e9c5"/><path d="m378.943 106.79v53.74l-80.34 80.33h-90.41l134.07-134.07z" fill="#f7f2df"/><path d="m341.793 296.92-43.23 43.23h-66.82l43.23-43.23z" fill="#f5c350"/><path d="m456.685 296.962v-.037c0-.341-.031-.674-.075-1.003-.01-.075-.022-.149-.034-.224-.115-.699-.326-1.365-.621-1.985-.027-.057-.053-.113-.082-.169-.155-.307-.328-.603-.522-.884-.03-.043-.063-.083-.094-.126-.186-.257-.388-.501-.604-.732-.037-.04-.071-.082-.11-.121-.244-.249-.507-.478-.784-.691-.027-.021-.048-.046-.075-.066l-42.032-31.522v-171.152l42.032-31.522c.027-.02.048-.046.075-.066.276-.213.54-.442.784-.691.038-.039.072-.081.11-.121.217-.231.418-.476.605-.733.031-.042.064-.082.093-.125.195-.281.367-.577.522-.884.028-.056.055-.113.082-.17.295-.62.506-1.285.621-1.984.012-.074.024-.148.034-.224.044-.329.075-.662.075-1.003v-.037c0-.004 0-.008 0-.013v-43.177c0-4.143-3.358-7.5-7.5-7.5h-165.712-69.42-93.131c-4.142 0-7.5 3.357-7.5 7.5v43.178.013.037c0 .341.031.674.075 1.003.01.075.022.149.034.224.115.699.326 1.365.621 1.984.027.057.053.113.082.17.155.307.328.603.522.884.03.043.063.083.093.125.186.257.388.501.605.733.037.04.071.082.11.121.244.249.507.478.784.691.027.021.048.046.075.066l42.031 31.522v171.153l-42.031 31.522c-.027.02-.048.046-.075.066-.276.213-.54.442-.784.691-.038.039-.072.081-.11.121-.216.231-.418.475-.604.732-.031.042-.064.083-.094.126-.194.281-.367.577-.522.884-.028.056-.055.112-.082.169-.295.62-.506 1.285-.621 1.985-.012.074-.024.149-.034.224-.044.329-.075.662-.075 1.003v.037.012 43.178c0 4.143 3.358 7.5 7.5 7.5h7.36v156.846c0 4.143 3.358 7.5 7.5 7.5h143.645 65.966 58.76 30.17.001c4.142 0 7.5-3.357 7.5-7.5v-156.848h7.36c4.142 0 7.5-3.357 7.5-7.5v-43.178c.001-.004.001-.008.001-.012zm-15 35.69h-7.36-117.657l5.159-5.158c2.929-2.929 2.929-7.678 0-10.606-2.929-2.93-7.678-2.929-10.606-.001l-15.763 15.763h-.833-44.775l28.225-28.225h163.61zm-169.758 52.079v35.69l-72.765-72.769h92.357l29.579 29.579h-41.672c-4.141 0-7.499 3.358-7.499 7.5zm-136.145-52.079h-7.36v-28.228h128.439l-28.225 28.225h-47.583c-.013 0-.026.003-.039.003zm37.671-240.652h223.2v163.653h-223.2zm268.232-48.772h-111.887l-28.221-28.228h140.108zm-161.319-28.228 28.221 28.228h-48.2l-28.227-28.228zm-151.944 0h82.524l28.228 28.228h-110.752zm128.822 43.228c.013 0 .026.002.039.002h69.41c.009 0 .017-.002.026-.002h99.965l-25.031 18.772h-233.2l-25.031-18.772zm-88.791 212.425h233.2l25.031 18.771h-84.794c-.033 0-.064-.005-.097-.005h-66.82c-.033 0-.066.004-.099.005h-131.451zm-25.171 76.999h34.668l93.977 93.983v55.365h-128.645zm143.645 108.985 40.36 40.363h-40.361v-40.363zm61.573 40.363-61.573-61.577v-43.191h49.172l60.554 60.554v44.214zm48.153-65.428-39.341-39.341h39.341zm15 65.428v-29.214l15.17 15.17v14.044zm15.172-35.256-15.172-15.172v-61.841c0-4.143-3.358-7.5-7.5-7.5h-61.841l-29.579-29.579h114.092z"/><path d="m378.939 99.289h-187.772c-4.142 0-7.5 3.357-7.5 7.5v134.074c0 4.143 3.358 7.5 7.5 7.5h28.576c4.142 0 7.5-3.357 7.5-7.5s-3.358-7.5-7.5-7.5h-21.076v-119.074h172.771v119.074h-117.438c-4.142 0-7.5 3.357-7.5 7.5s3.358 7.5 7.5 7.5h124.939c4.142 0 7.5-3.357 7.5-7.5v-134.074c0-4.143-3.358-7.5-7.5-7.5z"/><path d="m171.387 472.167h-10c-4.142 0-7.5 3.357-7.5 7.5s3.358 7.5 7.5 7.5h10c4.142 0 7.5-3.357 7.5-7.5s-3.358-7.5-7.5-7.5z"/><path d="m171.387 452.167h-10c-4.142 0-7.5 3.357-7.5 7.5s3.358 7.5 7.5 7.5h10c4.142 0 7.5-3.357 7.5-7.5s-3.358-7.5-7.5-7.5z"/><path d="m161.387 447.167h10c4.142 0 7.5-3.357 7.5-7.5s-3.358-7.5-7.5-7.5h-10c-4.142 0-7.5 3.357-7.5 7.5s3.358 7.5 7.5 7.5z"/><path d="m84.185 276.355h-21.37c-4.142 0-7.5 3.357-7.5 7.5s3.358 7.5 7.5 7.5h21.369c4.142 0 7.5-3.357 7.5-7.5s-3.357-7.5-7.499-7.5z"/><path d="m126.027 249.513v-21.368c0-4.143-3.358-7.5-7.5-7.5s-7.5 3.357-7.5 7.5v21.368c0 4.143 3.358 7.5 7.5 7.5s7.5-3.358 7.5-7.5z"/><path d="m85.29 240.012c-2.929-2.928-7.678-2.928-10.606 0-2.929 2.93-2.929 7.678 0 10.607l15.264 15.264c1.464 1.464 3.384 2.196 5.303 2.196s3.839-.732 5.303-2.196c2.929-2.93 2.929-7.678 0-10.607z"/></svg>